<svg height="36" viewBox="0 0 36 36" width="36" xmlns="http://www.w3.org/2000/svg"><g fill="none" fill-rule="evenodd"><rect fill="#fff" height="36" rx="5" width="36"/><g fill-rule="nonzero"><path d="m6.20538 9.35921-.97464 3.63849-3.56228.0753c-1.064602-1.9746-1.66846-4.23375-1.66846-6.63453 0-2.32154.564593-4.51079 1.56537-6.43846971h.00077l3.17143.58143671 1.38928 3.152403c-.29078.84771-.44926 1.75771-.44926 2.70463.00011 1.02768.18627 2.01233.52779 2.92074z" fill="#fbbb00" transform="translate(4 11.6)"/><path d="m13.4476-.00000028c.1608.84689028.2446 1.72151028.2446 2.61537028 0 1.00232-.1054 1.98002-.3061 2.9231-.6816 3.20923-2.4623 6.01153-4.92924 7.99463l-.00077-.0008-3.99458-.2038-.56536-3.52927c1.6369-.95998 2.91615-2.4623 3.59001-4.26076h-7.48616051v-5.53847028h7.59537051z" fill="#518ef8" transform="translate(18.3 15.4)"/><path d="m21.0953 7.99613.0008.00077c-2.3992 1.92844-5.4469 3.0823-8.7646 3.0823-5.33151 0-9.96687-2.97998-12.33149996-7.36537l4.53691996-3.71383019c1.18229 3.15536019 4.22613 5.40154019 7.79458 5.40154019 1.5338 0 2.9708-.41464 4.2038-1.13849z" fill="#28b446" transform="translate(5.7 20.9)"/><path d="m21.3707 3.22306-4.5353 3.71306c-1.2762-.79767-2.7847-1.25847-4.4008-1.25847-3.64923 0-6.75001 2.34922-7.87307 5.61775l-4.56076435-3.73387h-.00076562c2.33000997-4.4923 7.02382997-7.56153 12.43459997-7.56153 3.3969 0 6.5115 1.21002 8.9361 3.22306z" fill="#f14336" transform="translate(5.6 4)"/></g></g></svg>